<?xml version="1.0" standalone="no"?>
<!DOCTYPE svg PUBLIC "-//W3C//DTD SVG 20010904//EN"
 "http://www.w3.org/TR/2001/REC-SVG-20010904/DTD/svg10.dtd">
<svg version="1.0" xmlns="http://www.w3.org/2000/svg"
 width="512.000000pt" height="512.000000pt" viewBox="0 0 512.000000 512.000000"
 preserveAspectRatio="xMidYMid meet">

  <g transform="translate(0.000000,512.000000) scale(0.100000,-0.100000)"
  fill="#000000" stroke="none">
    <path d="M0 2560 l0 -2560 2560 0 2560 0 0 2560 0 2560 -2560 0 -2560 0 0
-2560z m2336 1098 l105 -103 -423 -423 -423 -422 -264 264 -265 265 104 106
104 105 158 -157 158 -158 313 313 c171 171 315 312 320 312 4 0 55 -46 113
-102z m1714 -498 l0 -150 -670 0 -670 0 0 150 0 150 670 0 670 0 0 -150z
m-1712 -703 l102 -103 -272 -269 c-150 -149 -341 -337 -424 -418 l-152 -149
-262 263 -262 262 106 106 106 106 158 -158 157 -157 310 310 c170 171 314
310 320 310 6 0 56 -46 113 -103z m1712 -497 l0 -150 -670 0 -670 0 0 150 0
150 670 0 670 0 0 -150z"/>
  </g>
</svg>
